<mxfile host="app.diagrams.net" agent="Mozilla/5.0 (Windows NT 10.0; Win64; x64) AppleWebKit/537.36 (KHTML, like Gecko) Chrome/135.0.0.0 Safari/537.36 Edg/135.0.0.0" version="26.2.10">
  <diagram name="Spring Boot Framework" id="3H-nCnwb0ddUhL6ohGKZ">
    <mxGraphModel dx="996" dy="570" grid="1" gridSize="10" guides="1" tooltips="1" connect="1" arrows="1" fold="1" page="1" pageScale="1" pageWidth="827" pageHeight="1169" math="0" shadow="0">
      <root>
        <mxCell id="0" />
        <mxCell id="1" parent="0" />
        <mxCell id="49xpPJhN3QQFl5k_wzqC-1" value="Spring Boot Application" style="shape=rounded;fillColor=#E5F6FF;strokeColor=#73A6FF;align=center;verticalAlign=middle;fontSize=14;spacing=10;spacingTop=4;spacingRight=4;spacingBottom=4;spacingLeft=4;portConstraint=eastwest;" vertex="1" parent="1">
          <mxGeometry x="50" y="50" width="200" height="50" as="geometry" />
        </mxCell>
        <mxCell id="49xpPJhN3QQFl5k_wzqC-2" value="Controller" style="shape=rounded;fillColor=#FFF6CC;strokeColor=#FFBC52;align=center;verticalAlign=middle;fontSize=14;spacing=10;spacingTop=4;spacingRight=4;spacingBottom=4;spacingLeft=4;portConstraint=eastwest;" vertex="1" parent="1">
          <mxGeometry x="300" y="50" width="150" height="50" as="geometry" />
        </mxCell>
        <mxCell id="49xpPJhN3QQFl5k_wzqC-3" value="Service Impl" style="shape=rounded;fillColor=#E5F6FF;strokeColor=#73A6FF;align=center;verticalAlign=middle;fontSize=14;spacing=10;spacingTop=4;spacingRight=4;spacingBottom=4;spacingLeft=4;portConstraint=eastwest;" vertex="1" parent="1">
          <mxGeometry x="500" y="50" width="150" height="50" as="geometry" />
        </mxCell>
        <mxCell id="49xpPJhN3QQFl5k_wzqC-4" value="Mapper" style="shape=rounded;fillColor=#FFF6CC;strokeColor=#FFBC52;align=center;verticalAlign=middle;fontSize=14;spacing=10;spacingTop=4;spacingRight=4;spacingBottom=4;spacingLeft=4;portConstraint=eastwest;" vertex="1" parent="1">
          <mxGeometry x="700" y="50" width="150" height="50" as="geometry" />
        </mxCell>
        <mxCell id="49xpPJhN3QQFl5k_wzqC-5" value="Database" style="shape=cylinder;fillColor=#E5F6FF;strokeColor=#73A6FF;align=center;verticalAlign=middle;fontSize=14;spacing=10;spacingTop=4;spacingRight=4;spacingBottom=4;spacingLeft=4;portConstraint=eastwest;" vertex="1" parent="1">
          <mxGeometry x="300" y="200" width="200" height="100" as="geometry" />
        </mxCell>
        <mxCell id="49xpPJhN3QQFl5k_wzqC-6" value="" style="edgeStyle=orthogonalEdgeStyle;rounded=1;orthogonalLoop=1;jettySize=auto;html=1;strokeColor=#000000;fillColor=#000000;startArrow=none;endArrow=block;verticalAlign=middle;align=center;edge=1;" edge="1" parent="1" source="49xpPJhN3QQFl5k_wzqC-1" target="49xpPJhN3QQFl5k_wzqC-2">
          <mxGeometry relative="1" as="geometry">
            <mxPoint x="250" y="75" as="point" />
          </mxGeometry>
        </mxCell>
        <mxCell id="49xpPJhN3QQFl5k_wzqC-7" value="" style="edgeStyle=orthogonalEdgeStyle;rounded=1;orthogonalLoop=1;jettySize=auto;html=1;strokeColor=#000000;fillColor=#000000;startArrow=none;endArrow=block;verticalAlign=middle;align=center;edge=1;" edge="1" parent="1" source="49xpPJhN3QQFl5k_wzqC-2" target="49xpPJhN3QQFl5k_wzqC-3">
          <mxGeometry relative="1" as="geometry">
            <mxPoint x="450" y="75" as="point" />
          </mxGeometry>
        </mxCell>
        <mxCell id="49xpPJhN3QQFl5k_wzqC-8" value="" style="edgeStyle=orthogonalEdgeStyle;rounded=1;orthogonalLoop=1;jettySize=auto;html=1;strokeColor=#000000;fillColor=#000000;startArrow=none;endArrow=block;verticalAlign=middle;align=center;edge=1;" edge="1" parent="1" source="49xpPJhN3QQFl5k_wzqC-3" target="49xpPJhN3QQFl5k_wzqC-4">
          <mxGeometry relative="1" as="geometry">
            <mxPoint x="650" y="75" as="point" />
          </mxGeometry>
        </mxCell>
        <mxCell id="49xpPJhN3QQFl5k_wzqC-9" value="" style="edgeStyle=orthogonalEdgeStyle;rounded=1;orthogonalLoop=1;jettySize=auto;html=1;strokeColor=#000000;fillColor=#000000;startArrow=none;endArrow=block;verticalAlign=middle;align=center;edge=1;" edge="1" parent="1" source="49xpPJhN3QQFl5k_wzqC-4" target="49xpPJhN3QQFl5k_wzqC-5">
          <mxGeometry relative="1" as="geometry">
            <mxPoint x="400" y="125" as="point" />
          </mxGeometry>
        </mxCell>
      </root>
    </mxGraphModel>
  </diagram>
</mxfile>
